<svg width="327" height="443" viewBox="0 0 327 443" fill="none" xmlns="http://www.w3.org/2000/svg">
<g id="Group 5">
<path id="Vector 7" d="M97.5735 242.373C114.798 242.373 112.693 226.85 112.693 226.85H133.554C133.554 239.875 127.957 257.377 99.8701 254.863C87.2267 253.732 81.7316 245.036 81.9411 235.559C81.9816 233.724 83.576 232.381 85.4115 232.381C86.4469 232.381 87.3225 233.169 87.5891 234.169C88.355 237.044 90.7017 242.373 97.5735 242.373Z" fill="url(#paint0_linear_257087_1487)"/>
<path id="Rectangle 1" d="M101.954 169.687C101.295 140.31 125.565 117.48 154.949 117.48C181.934 117.48 205.093 136.794 212.361 162.782C219.361 187.809 229.977 219.763 244.805 249.465C259.028 277.957 242.275 324.132 210.675 328.075L185.133 331.262C174.834 332.547 164.378 331.138 154.788 327.172L146.721 323.837C140.203 321.141 134.237 317.104 130.434 311.163C108.596 277.051 102.958 214.484 101.954 169.687Z" fill="url(#paint1_linear_257087_1487)"/>
<g id="Ellipse 6" opacity="0.5" filter="url(#filter0_f_257087_1487)">
<ellipse cx="204.743" cy="354.787" rx="36.5239" ry="2.64828" fill="url(#paint2_linear_257087_1487)"/>
</g>
<path id="Vector 6" d="M152.274 254.359C169.498 254.359 167.393 238.835 167.393 238.835H188.254C188.254 251.861 182.657 269.362 154.57 266.849C141.927 265.718 136.432 257.022 136.641 247.544C136.682 245.709 138.276 244.367 140.112 244.367C141.147 244.367 142.023 245.154 142.289 246.155C143.055 249.03 145.402 254.359 152.274 254.359Z" fill="url(#paint3_linear_257087_1487)"/>
<g id="Group 11">
<g id="Group 1" filter="url(#filter1_d_257087_1487)">
<g id="Rectangle 5" filter="url(#filter2_ii_257087_1487)">
<path d="M109.037 170.53C108.267 158.324 113.535 146.516 123.132 138.934C135.528 129.142 152.314 126.983 166.784 133.321L168.127 133.909C184.203 140.95 193.685 157.772 191.386 175.17L188.004 200.756C185.453 220.062 168.993 234.491 149.519 234.491C129.027 234.491 112.064 218.563 110.775 198.112L109.037 170.53Z" fill="url(#paint4_linear_257087_1487)"/>
</g>
<g id="Rectangle 4" opacity="0.12" filter="url(#filter3_f_257087_1487)">
<path d="M111.289 203.635C110.852 197.462 115.252 191.997 121.376 191.108L134.995 189.13C137.893 188.709 140.838 188.709 143.736 189.13L157.299 191.1C163.448 191.993 167.858 197.492 167.394 203.689C166.644 213.709 158.295 221.456 148.247 221.456H130.419C120.354 221.456 112.002 213.675 111.289 203.635Z" fill="url(#paint5_linear_257087_1487)"/>
</g>
<g id="Rectangle 8" filter="url(#filter4_dd_257087_1487)">
<rect x="133.354" y="204.077" width="6.01096" height="14.9821" rx="3.00548" fill="url(#paint6_linear_257087_1487)"/>
</g>
</g>
<g id="Group 4">
<g id="Group 2">
<g id="Ellipse 1" filter="url(#filter5_dd_257087_1487)">
<ellipse cx="121.634" cy="176.66" rx="9.31699" ry="9.13911" fill="url(#paint7_linear_257087_1487)"/>
</g>
<ellipse id="Ellipse 2" cx="121.634" cy="190.144" rx="4.20768" ry="2.24732" fill="url(#paint8_linear_257087_1487)"/>
<path id="Rectangle 5_2" d="M119.513 153.408C120.12 150.626 122.583 148.643 125.43 148.643C125.824 148.643 126.143 148.962 126.143 149.355V161.566C126.143 163.862 124.282 165.722 121.986 165.722C119.334 165.722 117.36 163.272 117.926 160.68L119.513 153.408Z" fill="url(#paint9_linear_257087_1487)"/>
<path id="Rectangle 6" d="M119.15 208.359C119.652 211.419 122.296 213.666 125.398 213.666C125.809 213.666 126.143 213.332 126.143 212.921V198.468C126.143 196.105 124.227 194.189 121.864 194.189C119.224 194.189 117.214 196.555 117.641 199.16L119.15 208.359Z" fill="url(#paint10_linear_257087_1487)"/>
</g>
<g id="Group 3">
<g id="Ellipse 1_2" filter="url(#filter6_dd_257087_1487)">
<ellipse cx="10.0482" cy="10.0179" rx="10.0482" ry="10.0179" transform="matrix(-1 -8.71595e-08 -8.76869e-08 1 168.002 166.845)" fill="url(#paint11_linear_257087_1487)"/>
</g>
<ellipse id="Ellipse 2_2" cx="4.59345" cy="2.43292" rx="4.59345" ry="2.43292" transform="matrix(-1 -8.71595e-08 -8.76869e-08 1 162.547 189.17)" fill="url(#paint12_linear_257087_1487)"/>
<path id="Rectangle 5_3" d="M160.212 151.666C159.564 148.665 156.91 146.523 153.839 146.523C153.416 146.523 153.072 146.866 153.072 147.29L153.072 160.64C153.072 163.118 155.082 165.127 157.56 165.127C160.42 165.127 162.55 162.488 161.946 159.692L160.212 151.666Z" fill="url(#paint13_linear_257087_1487)"/>
<path id="Rectangle 6_2" d="M160.607 211.209C160.07 214.51 157.219 216.934 153.875 216.934C153.432 216.934 153.072 216.575 153.072 216.132L153.072 200.372C153.072 197.821 155.14 195.754 157.691 195.754C160.537 195.754 162.706 198.304 162.249 201.113L160.607 211.209Z" fill="url(#paint14_linear_257087_1487)"/>
</g>
</g>
</g>
</g>
<defs>
<filter id="filter0_f_257087_1487" x="83.214" y="267.134" width="243.058" height="175.307" filterUnits="userSpaceOnUse" color-interpolation-filters="sRGB">
<feFlood flood-opacity="0" result="BackgroundImageFix"/>
<feBlend mode="normal" in="SourceGraphic" in2="BackgroundImageFix" result="shape"/>
<feGaussianBlur stdDeviation="42.5025" result="effect1_foregroundBlur_257087_1487"/>
</filter>
<filter id="filter1_d_257087_1487" x="0.576469" y="0.0910225" width="299.537" height="321.534" filterUnits="userSpaceOnUse" color-interpolation-filters="sRGB">
<feFlood flood-opacity="0" result="BackgroundImageFix"/>
<feColorMatrix in="SourceAlpha" type="matrix" values="0 0 0 0 0 0 0 0 0 0 0 0 0 0 0 0 0 0 127 0" result="hardAlpha"/>
<feOffset dy="-21.2522"/>
<feGaussianBlur stdDeviation="54.193"/>
<feColorMatrix type="matrix" values="0 0 0 0 1 0 0 0 0 0.820833 0 0 0 0 0.992833 0 0 0 0.35 0"/>
<feBlend mode="normal" in2="BackgroundImageFix" result="effect1_dropShadow_257087_1487"/>
<feBlend mode="normal" in="SourceGraphic" in2="effect1_dropShadow_257087_1487" result="shape"/>
</filter>
<filter id="filter2_ii_257087_1487" x="62.2077" y="120.166" width="129.52" height="129.201" filterUnits="userSpaceOnUse" color-interpolation-filters="sRGB">
<feFlood flood-opacity="0" result="BackgroundImageFix"/>
<feBlend mode="normal" in="SourceGraphic" in2="BackgroundImageFix" result="shape"/>
<feColorMatrix in="SourceAlpha" type="matrix" values="0 0 0 0 0 0 0 0 0 0 0 0 0 0 0 0 0 0 127 0" result="hardAlpha"/>
<feOffset dy="-9.56348"/>
<feGaussianBlur stdDeviation="9.56348"/>
<feComposite in2="hardAlpha" operator="arithmetic" k2="-1" k3="1"/>
<feColorMatrix type="matrix" values="0 0 0 0 0.379167 0 0 0 0 0.102691 0 0 0 0 0.351519 0 0 0 0.31 0"/>
<feBlend mode="normal" in2="shape" result="effect1_innerShadow_257087_1487"/>
<feColorMatrix in="SourceAlpha" type="matrix" values="0 0 0 0 0 0 0 0 0 0 0 0 0 0 0 0 0 0 127 0" result="hardAlpha"/>
<feOffset dx="-46.7548" dy="14.8765"/>
<feGaussianBlur stdDeviation="42.5043"/>
<feComposite in2="hardAlpha" operator="arithmetic" k2="-1" k3="1"/>
<feColorMatrix type="matrix" values="0 0 0 0 0.291279 0 0 0 0 0.061684 0 0 0 0 0.779167 0 0 0 0.28 0"/>
<feBlend mode="normal" in2="effect1_innerShadow_257087_1487" result="effect2_innerShadow_257087_1487"/>
</filter>
<filter id="filter3_f_257087_1487" x="29.4899" y="107.045" width="219.707" height="196.181" filterUnits="userSpaceOnUse" color-interpolation-filters="sRGB">
<feFlood flood-opacity="0" result="BackgroundImageFix"/>
<feBlend mode="normal" in="SourceGraphic" in2="BackgroundImageFix" result="shape"/>
<feGaussianBlur stdDeviation="40.8848" result="effect1_foregroundBlur_257087_1487"/>
</filter>
<filter id="filter4_dd_257087_1487" x="121.666" y="195.188" width="29.3884" height="41.9354" filterUnits="userSpaceOnUse" color-interpolation-filters="sRGB">
<feFlood flood-opacity="0" result="BackgroundImageFix"/>
<feColorMatrix in="SourceAlpha" type="matrix" values="0 0 0 0 0 0 0 0 0 0 0 0 0 0 0 0 0 0 127 0" result="hardAlpha"/>
<feOffset dy="6.37565"/>
<feGaussianBlur stdDeviation="5.84435"/>
<feColorMatrix type="matrix" values="0 0 0 0 0.599108 0 0 0 0 0.279792 0 0 0 0 0.85 0 0 0 0.35 0"/>
<feBlend mode="normal" in2="BackgroundImageFix" result="effect1_dropShadow_257087_1487"/>
<feColorMatrix in="SourceAlpha" type="matrix" values="0 0 0 0 0 0 0 0 0 0 0 0 0 0 0 0 0 0 127 0" result="hardAlpha"/>
<feOffset dx="-2.12522" dy="-1.06261"/>
<feGaussianBlur stdDeviation="3.91311"/>
<feColorMatrix type="matrix" values="0 0 0 0 1 0 0 0 0 1 0 0 0 0 1 0 0 0 0.2 0"/>
<feBlend mode="normal" in2="effect1_dropShadow_257087_1487" result="effect2_dropShadow_257087_1487"/>
<feBlend mode="normal" in="SourceGraphic" in2="effect2_dropShadow_257087_1487" result="shape"/>
</filter>
<filter id="filter5_dd_257087_1487" x="99.8988" y="161.24" width="36.2702" height="38.7692" filterUnits="userSpaceOnUse" color-interpolation-filters="sRGB">
<feFlood flood-opacity="0" result="BackgroundImageFix"/>
<feColorMatrix in="SourceAlpha" type="matrix" values="0 0 0 0 0 0 0 0 0 0 0 0 0 0 0 0 0 0 127 0" result="hardAlpha"/>
<feOffset dx="-5.31304" dy="7.1052"/>
<feGaussianBlur stdDeviation="3.5526"/>
<feColorMatrix type="matrix" values="0 0 0 0 0.603458 0 0 0 0 0.390104 0 0 0 0 0.875 0 0 0 0.32 0"/>
<feBlend mode="normal" in2="BackgroundImageFix" result="effect1_dropShadow_257087_1487"/>
<feColorMatrix in="SourceAlpha" type="matrix" values="0 0 0 0 0 0 0 0 0 0 0 0 0 0 0 0 0 0 127 0" result="hardAlpha"/>
<feOffset dx="3.18783" dy="-4.25043"/>
<feGaussianBlur stdDeviation="1.01503"/>
<feColorMatrix type="matrix" values="0 0 0 0 1 0 0 0 0 1 0 0 0 0 1 0 0 0 0.4 0"/>
<feBlend mode="normal" in2="effect1_dropShadow_257087_1487" result="effect2_dropShadow_257087_1487"/>
<feBlend mode="normal" in="SourceGraphic" in2="effect2_dropShadow_257087_1487" result="shape"/>
</filter>
<filter id="filter6_dd_257087_1487" x="136.55" y="162.785" width="35.6072" height="38.6395" filterUnits="userSpaceOnUse" color-interpolation-filters="sRGB">
<feFlood flood-opacity="0" result="BackgroundImageFix"/>
<feColorMatrix in="SourceAlpha" type="matrix" values="0 0 0 0 0 0 0 0 0 0 0 0 0 0 0 0 0 0 127 0" result="hardAlpha"/>
<feOffset dx="-4.25043" dy="7.43826"/>
<feGaussianBlur stdDeviation="3.5526"/>
<feColorMatrix type="matrix" values="0 0 0 0 0.603458 0 0 0 0 0.390104 0 0 0 0 0.875 0 0 0 0.32 0"/>
<feBlend mode="normal" in2="BackgroundImageFix" result="effect1_dropShadow_257087_1487"/>
<feColorMatrix in="SourceAlpha" type="matrix" values="0 0 0 0 0 0 0 0 0 0 0 0 0 0 0 0 0 0 127 0" result="hardAlpha"/>
<feOffset dx="2.12522" dy="-2.03006"/>
<feGaussianBlur stdDeviation="1.01503"/>
<feColorMatrix type="matrix" values="0 0 0 0 1 0 0 0 0 1 0 0 0 0 1 0 0 0 0.4 0"/>
<feBlend mode="normal" in2="effect1_dropShadow_257087_1487" result="effect2_dropShadow_257087_1487"/>
<feBlend mode="normal" in="SourceGraphic" in2="effect2_dropShadow_257087_1487" result="shape"/>
</filter>
<linearGradient id="paint0_linear_257087_1487" x1="96.1238" y1="237.187" x2="111.71" y2="237.187" gradientUnits="userSpaceOnUse">
<stop stop-color="#0D0038" stop-opacity="0.37"/>
<stop offset="1" stop-opacity="0"/>
</linearGradient>
<linearGradient id="paint1_linear_257087_1487" x1="167.467" y1="133.361" x2="163.012" y2="364.181" gradientUnits="userSpaceOnUse">
<stop stop-color="#0D0038"/>
<stop offset="1" stop-opacity="0"/>
</linearGradient>
<linearGradient id="paint2_linear_257087_1487" x1="204.743" y1="352.139" x2="204.743" y2="357.435" gradientUnits="userSpaceOnUse">
<stop/>
<stop offset="1" stop-color="#151433" stop-opacity="0.87"/>
<stop offset="1" stop-color="#251F27" stop-opacity="0.87"/>
</linearGradient>
<linearGradient id="paint3_linear_257087_1487" x1="141.423" y1="252.842" x2="172.133" y2="238.633" gradientUnits="userSpaceOnUse">
<stop stop-color="#0D0038" stop-opacity="0.37"/>
<stop offset="0.626611" stop-color="#050015" stop-opacity="0.08"/>
<stop offset="1" stop-opacity="0"/>
</linearGradient>
<linearGradient id="paint4_linear_257087_1487" x1="151.538" y1="123.023" x2="151.538" y2="234.491" gradientUnits="userSpaceOnUse">
<stop stop-color="white"/>
<stop offset="0.0698237" stop-color="#F4F0F4" stop-opacity="0.990923"/>
<stop offset="0.942282" stop-color="#C7C5FE" stop-opacity="0.77"/>
<stop offset="1" stop-color="#C4C2FF" stop-opacity="0.81"/>
</linearGradient>
<linearGradient id="paint5_linear_257087_1487" x1="139.365" y1="188.495" x2="139.365" y2="221.456" gradientUnits="userSpaceOnUse">
<stop stop-color="#5B225C"/>
<stop offset="1" stop-color="#151433" stop-opacity="0.87"/>
<stop offset="1" stop-color="#59266B" stop-opacity="0.87"/>
</linearGradient>
<linearGradient id="paint6_linear_257087_1487" x1="136.36" y1="205.151" x2="136.375" y2="220.387" gradientUnits="userSpaceOnUse">
<stop stop-color="#261953"/>
<stop offset="1" stop-color="#11082F"/>
</linearGradient>
<linearGradient id="paint7_linear_257087_1487" x1="121.634" y1="168.831" x2="121.641" y2="187.419" gradientUnits="userSpaceOnUse">
<stop stop-color="#2E1E65"/>
<stop offset="1" stop-color="#11082F"/>
</linearGradient>
<linearGradient id="paint8_linear_257087_1487" x1="128.866" y1="187.896" x2="114.082" y2="193.511" gradientUnits="userSpaceOnUse">
<stop stop-color="#FE4A23" stop-opacity="0.35"/>
<stop offset="1" stop-color="#FA43B0" stop-opacity="0"/>
</linearGradient>
<linearGradient id="paint9_linear_257087_1487" x1="121.484" y1="148.643" x2="121.361" y2="168.954" gradientUnits="userSpaceOnUse">
<stop stop-color="#FE4A23" stop-opacity="0.42"/>
<stop offset="1" stop-color="#FA43B0" stop-opacity="0.38"/>
</linearGradient>
<linearGradient id="paint10_linear_257087_1487" x1="121.484" y1="213.666" x2="121.324" y2="190.504" gradientUnits="userSpaceOnUse">
<stop stop-color="#FE4A23" stop-opacity="0.17"/>
<stop offset="1" stop-color="#FA43B0" stop-opacity="0.48"/>
</linearGradient>
<linearGradient id="paint11_linear_257087_1487" x1="10.0482" y1="1.43694" x2="10.0561" y2="21.8117" gradientUnits="userSpaceOnUse">
<stop stop-color="#2E1E65"/>
<stop offset="1" stop-color="#11082F"/>
</linearGradient>
<linearGradient id="paint12_linear_257087_1487" x1="12.4884" y1="-4.34217e-07" x2="-3.61731" y2="6.16759" gradientUnits="userSpaceOnUse">
<stop stop-color="#FE4A23" stop-opacity="0.35"/>
<stop offset="1" stop-color="#FA43B0" stop-opacity="0"/>
</linearGradient>
<linearGradient id="paint13_linear_257087_1487" x1="158.097" y1="146.523" x2="158.232" y2="168.647" gradientUnits="userSpaceOnUse">
<stop stop-color="#FE4A23" stop-opacity="0.42"/>
<stop offset="1" stop-color="#FA43B0" stop-opacity="0.38"/>
</linearGradient>
<linearGradient id="paint14_linear_257087_1487" x1="158.097" y1="216.934" x2="158.272" y2="191.747" gradientUnits="userSpaceOnUse">
<stop stop-color="#FE4A23" stop-opacity="0.17"/>
<stop offset="1" stop-color="#FA43B0" stop-opacity="0.48"/>
</linearGradient>
</defs>
</svg>
