<svg width="356" height="390" viewBox="0 0 356 390" fill="none" xmlns="http://www.w3.org/2000/svg">
<g id="ilustra&#195;&#167;&#195;&#163;o">
<g id="Group 10">
<g id="Ellipse 5" opacity="0.5" filter="url(#filter0_f_257087_1299)">
<ellipse cx="110.337" cy="302.559" rx="27.349" ry="2.02468" fill="url(#paint0_linear_257087_1299)"/>
</g>
<g id="Group 6">
<path id="Rectangle 1" d="M62.5566 168.327C61.9768 141.809 83.3146 120 109.839 120C136.385 120 157.732 141.845 157.119 168.385L155.111 255.418C154.822 267.936 146.423 278.811 134.384 282.254L124.674 285.032C114.935 287.817 104.611 287.817 94.8721 285.032L85.2053 282.267C73.1436 278.817 64.734 267.915 64.4598 255.372L62.5566 168.327Z" fill="url(#paint1_linear_257087_1299)"/>
<path id="Rectangle 2" opacity="0.6" d="M109.789 196.153C109.805 154.09 158.044 127.323 157.074 169.375L155.09 255.306C154.915 262.88 154.828 266.667 153.496 269.837C152.315 272.65 150.445 275.106 148.066 276.969C145.385 279.07 141.811 280.092 134.662 282.136L121.865 285.796C115.847 287.517 112.838 288.377 109.753 288.377L109.789 196.153Z" fill="url(#paint2_linear_257087_1299)"/>
<g id="Group 1" filter="url(#filter1_d_257087_1299)">
<g id="Rectangle 3" filter="url(#filter2_ii_257087_1299)">
<path d="M76.5404 164.137C76.0723 150.407 84.903 138.08 98.0543 134.107L99.2869 133.735C106.187 131.65 113.549 131.65 120.45 133.735L121.623 134.089C134.804 138.071 143.645 150.437 143.15 164.197L142.58 180.043C141.945 197.671 127.471 211.634 109.831 211.634C92.1676 211.634 77.6824 197.634 77.0805 179.981L76.5404 164.137Z" fill="url(#paint3_linear_257087_1299)"/>
</g>
<g id="Rectangle 4" opacity="0.2" filter="url(#filter3_f_257087_1299)">
<path d="M90.1209 196.686C89.7964 193.545 92.0856 190.739 95.2274 190.425L107.902 189.162C109.286 189.024 110.68 189.024 112.063 189.162L124.696 190.421C127.856 190.736 130.152 193.568 129.808 196.724C129.295 201.428 125.322 204.991 120.591 204.991H99.3282C94.5845 204.991 90.6085 201.404 90.1209 196.686Z" fill="url(#paint4_linear_257087_1299)"/>
</g>
</g>
<g id="Subtract" filter="url(#filter4_dd_257087_1299)">
<path d="M112.946 199.637C112.946 200.383 111.658 200.987 110.069 200.987C108.481 200.987 107.193 200.383 107.193 199.637C107.193 198.892 108.481 198.288 110.069 198.288C111.658 198.288 112.946 198.892 112.946 199.637Z" fill="url(#paint5_linear_257087_1299)"/>
</g>
<g id="Group 4">
<g id="Group 2">
<g id="Ellipse 1" filter="url(#filter5_dd_257087_1299)">
<ellipse cx="90.9116" cy="166.504" rx="8.04219" ry="8.01797" fill="url(#paint6_linear_257087_1299)"/>
</g>
<ellipse id="Ellipse 2" cx="90.9118" cy="178.302" rx="3.67643" ry="1.94722" fill="url(#paint7_linear_257087_1299)"/>
<path id="Rectangle 5" d="M89.103 146.338C89.6219 143.936 91.7463 142.221 94.2037 142.221C94.5427 142.221 94.8176 142.496 94.8176 142.835V153.52C94.8176 155.504 93.2095 157.112 91.2259 157.112C88.9368 157.112 87.2318 154.999 87.7152 152.762L89.103 146.338Z" fill="url(#paint8_linear_257087_1299)"/>
<path id="Rectangle 6" d="M88.7874 193.994C89.2171 196.636 91.4988 198.576 94.1754 198.576C94.5301 198.576 94.8176 198.289 94.8176 197.934V185.32C94.8176 183.279 93.1627 181.624 91.1214 181.624C88.8432 181.624 87.1074 183.665 87.4731 185.914L88.7874 193.994Z" fill="url(#paint9_linear_257087_1299)"/>
</g>
<g id="Group 3">
<g id="Ellipse 1_2" filter="url(#filter6_dd_257087_1299)">
<ellipse cx="8.04219" cy="8.01797" rx="8.04219" ry="8.01797" transform="matrix(-1 0 0 1 136.407 158.486)" fill="url(#paint10_linear_257087_1299)"/>
</g>
<ellipse id="Ellipse 2_2" cx="3.67643" cy="1.94722" rx="3.67643" ry="1.94722" transform="matrix(-1 0 0 1 132.041 176.355)" fill="url(#paint11_linear_257087_1299)"/>
<path id="Rectangle 5_2" d="M130.173 146.338C129.654 143.936 127.53 142.221 125.073 142.221C124.734 142.221 124.459 142.496 124.459 142.835V153.52C124.459 155.504 126.067 157.112 128.05 157.112C130.339 157.112 132.044 154.999 131.561 152.762L130.173 146.338Z" fill="url(#paint12_linear_257087_1299)"/>
<path id="Rectangle 6_2" d="M130.489 193.994C130.059 196.636 127.777 198.576 125.101 198.576C124.746 198.576 124.459 198.289 124.459 197.934V185.32C124.459 183.279 126.114 181.624 128.155 181.624C130.433 181.624 132.169 183.665 131.803 185.914L130.489 193.994Z" fill="url(#paint13_linear_257087_1299)"/>
</g>
</g>
</g>
</g>
<g id="Group 5">
<path id="Vector 7" d="M160.18 216.616C173.349 216.616 171.739 204.747 171.739 204.747H187.688C187.688 214.706 183.409 228.086 161.936 226.165C152.27 225.3 148.068 218.652 148.229 211.406C148.26 210.003 149.478 208.976 150.882 208.976C151.673 208.976 152.343 209.579 152.547 210.343C153.132 212.541 154.926 216.616 160.18 216.616Z" fill="url(#paint14_linear_257087_1299)"/>
<path id="Rectangle 1_2" d="M163.529 161.045C163.025 138.586 181.58 121.131 204.045 121.131C224.676 121.131 242.381 135.898 247.938 155.766C253.29 174.9 261.406 199.329 272.742 222.038C283.616 243.82 270.808 279.123 246.649 282.137L227.121 284.574C219.248 285.556 211.254 284.479 203.921 281.447L197.754 278.896C192.771 276.836 188.21 273.749 185.302 269.207C168.607 243.128 164.296 195.293 163.529 161.045Z" fill="url(#paint15_linear_257087_1299)"/>
<g id="Ellipse 6" opacity="0.5" filter="url(#filter7_f_257087_1299)">
<ellipse cx="242.114" cy="302.559" rx="27.9235" ry="2.02468" fill="url(#paint16_linear_257087_1299)"/>
</g>
<path id="Vector 6" d="M202 225.779C215.168 225.779 213.559 213.911 213.559 213.911H229.507C229.507 223.869 225.228 237.249 203.755 235.328C194.089 234.463 189.888 227.815 190.048 220.569C190.079 219.166 191.298 218.14 192.701 218.14C193.493 218.14 194.162 218.742 194.366 219.507C194.952 221.704 196.746 225.779 202 225.779Z" fill="url(#paint17_linear_257087_1299)"/>
<g id="Group 11">
<g id="Group 1_2" filter="url(#filter8_d_257087_1299)">
<g id="Rectangle 5_3" filter="url(#filter9_ii_257087_1299)">
<path d="M168.944 161.69C168.356 152.357 172.383 143.33 179.72 137.534C189.197 130.047 202.03 128.397 213.093 133.242L214.12 133.692C226.41 139.075 233.66 151.936 231.902 165.237L229.317 184.798C227.366 199.558 214.782 210.589 199.893 210.589C184.227 210.589 171.258 198.412 170.273 182.777L168.944 161.69Z" fill="url(#paint18_linear_257087_1299)"/>
</g>
<g id="Rectangle 4_2" opacity="0.12" filter="url(#filter10_f_257087_1299)">
<path d="M170.666 186.999C170.332 182.28 173.696 178.102 178.378 177.422L188.79 175.91C191.006 175.588 193.257 175.588 195.473 175.91L205.841 177.416C210.543 178.098 213.915 182.303 213.56 187.04C212.986 194.701 206.603 200.624 198.921 200.624H185.291C177.596 200.624 171.211 194.675 170.666 186.999Z" fill="url(#paint19_linear_257087_1299)"/>
</g>
<g id="Rectangle 8" filter="url(#filter11_dd_257087_1299)">
<rect x="187.535" y="187.337" width="4.59554" height="11.4542" rx="2.29777" fill="url(#paint20_linear_257087_1299)"/>
</g>
</g>
<g id="Group 4_2">
<g id="Group 2_2">
<g id="Ellipse 1_3" filter="url(#filter12_dd_257087_1299)">
<ellipse cx="178.574" cy="166.376" rx="7.12308" ry="6.98709" fill="url(#paint21_linear_257087_1299)"/>
</g>
<ellipse id="Ellipse 2_3" cx="178.575" cy="176.685" rx="3.21688" ry="1.71814" fill="url(#paint22_linear_257087_1299)"/>
<path id="Rectangle 5_4" d="M176.953 148.6C177.417 146.473 179.3 144.956 181.477 144.956C181.778 144.956 182.022 145.2 182.022 145.501V154.837C182.022 156.592 180.599 158.014 178.844 158.014C176.816 158.014 175.307 156.14 175.74 154.159L176.953 148.6Z" fill="url(#paint23_linear_257087_1299)"/>
<path id="Rectangle 6_3" d="M176.675 190.611C177.059 192.95 179.081 194.668 181.452 194.668C181.767 194.668 182.022 194.413 182.022 194.098V183.049C182.022 181.242 180.557 179.777 178.75 179.777C176.732 179.777 175.195 181.587 175.522 183.578L176.675 190.611Z" fill="url(#paint24_linear_257087_1299)"/>
</g>
<g id="Group 3_2">
<g id="Ellipse 1_4" filter="url(#filter13_dd_257087_1299)">
<ellipse cx="7.68209" cy="7.65895" rx="7.68209" ry="7.65895" transform="matrix(-1 -8.71595e-08 -8.76869e-08 1 214.024 158.872)" fill="url(#paint25_linear_257087_1299)"/>
</g>
<ellipse id="Ellipse 2_4" cx="3.51181" cy="1.86003" rx="3.51181" ry="1.86003" transform="matrix(-1 -8.71595e-08 -8.76869e-08 1 209.854 175.941)" fill="url(#paint26_linear_257087_1299)"/>
<path id="Rectangle 5_5" d="M208.069 147.268C207.573 144.973 205.544 143.335 203.197 143.335C202.873 143.335 202.61 143.598 202.61 143.922L202.61 154.128C202.61 156.023 204.146 157.559 206.041 157.559C208.228 157.559 209.857 155.541 209.395 153.404L208.069 147.268Z" fill="url(#paint27_linear_257087_1299)"/>
<path id="Rectangle 6_4" d="M208.371 192.79C207.96 195.313 205.781 197.167 203.224 197.167C202.885 197.167 202.61 196.892 202.61 196.554L202.61 184.504C202.61 182.555 204.191 180.974 206.141 180.974C208.317 180.974 209.975 182.923 209.626 185.071L208.371 192.79Z" fill="url(#paint28_linear_257087_1299)"/>
</g>
</g>
</g>
</g>
</g>
<defs>
<filter id="filter0_f_257087_1299" x="-2.0167" y="215.529" width="224.708" height="174.059" filterUnits="userSpaceOnUse" color-interpolation-filters="sRGB">
<feFlood flood-opacity="0" result="BackgroundImageFix"/>
<feBlend mode="normal" in="SourceGraphic" in2="BackgroundImageFix" result="shape"/>
<feGaussianBlur stdDeviation="42.5025" result="effect1_foregroundBlur_257087_1299"/>
</filter>
<filter id="filter1_d_257087_1299" x="-29.7383" y="11.0338" width="279.169" height="291.984" filterUnits="userSpaceOnUse" color-interpolation-filters="sRGB">
<feFlood flood-opacity="0" result="BackgroundImageFix"/>
<feColorMatrix in="SourceAlpha" type="matrix" values="0 0 0 0 0 0 0 0 0 0 0 0 0 0 0 0 0 0 127 0" result="hardAlpha"/>
<feOffset dy="-14.8765"/>
<feGaussianBlur stdDeviation="53.1304"/>
<feColorMatrix type="matrix" values="0 0 0 0 1 0 0 0 0 0.820833 0 0 0 0 0.992833 0 0 0 0.37 0"/>
<feBlend mode="normal" in2="BackgroundImageFix" result="effect1_dropShadow_257087_1299"/>
<feBlend mode="normal" in="SourceGraphic" in2="effect1_dropShadow_257087_1299" result="shape"/>
</filter>
<filter id="filter2_ii_257087_1299" x="39.3313" y="119.42" width="103.838" height="92.2139" filterUnits="userSpaceOnUse" color-interpolation-filters="sRGB">
<feFlood flood-opacity="0" result="BackgroundImageFix"/>
<feBlend mode="normal" in="SourceGraphic" in2="BackgroundImageFix" result="shape"/>
<feColorMatrix in="SourceAlpha" type="matrix" values="0 0 0 0 0 0 0 0 0 0 0 0 0 0 0 0 0 0 127 0" result="hardAlpha"/>
<feOffset dy="-9.56348"/>
<feGaussianBlur stdDeviation="9.56348"/>
<feComposite in2="hardAlpha" operator="arithmetic" k2="-1" k3="1"/>
<feColorMatrix type="matrix" values="0 0 0 0 0.379167 0 0 0 0 0.102691 0 0 0 0 0.351519 0 0 0 0.31 0"/>
<feBlend mode="normal" in2="shape" result="effect1_innerShadow_257087_1299"/>
<feColorMatrix in="SourceAlpha" type="matrix" values="0 0 0 0 0 0 0 0 0 0 0 0 0 0 0 0 0 0 127 0" result="hardAlpha"/>
<feOffset dx="-37.1913" dy="-12.7513"/>
<feGaussianBlur stdDeviation="42.5043"/>
<feComposite in2="hardAlpha" operator="arithmetic" k2="-1" k3="1"/>
<feColorMatrix type="matrix" values="0 0 0 0 0.356342 0 0 0 0 0.165208 0 0 0 0 0.7625 0 0 0 0.28 0"/>
<feBlend mode="normal" in2="effect1_innerShadow_257087_1299" result="effect2_innerShadow_257087_1299"/>
</filter>
<filter id="filter3_f_257087_1299" x="8.32083" y="107.289" width="203.291" height="179.471" filterUnits="userSpaceOnUse" color-interpolation-filters="sRGB">
<feFlood flood-opacity="0" result="BackgroundImageFix"/>
<feBlend mode="normal" in="SourceGraphic" in2="BackgroundImageFix" result="shape"/>
<feGaussianBlur stdDeviation="40.8848" result="effect1_foregroundBlur_257087_1299"/>
</filter>
<filter id="filter4_dd_257087_1299" x="95.5038" y="189.399" width="29.1313" height="29.6526" filterUnits="userSpaceOnUse" color-interpolation-filters="sRGB">
<feFlood flood-opacity="0" result="BackgroundImageFix"/>
<feColorMatrix in="SourceAlpha" type="matrix" values="0 0 0 0 0 0 0 0 0 0 0 0 0 0 0 0 0 0 127 0" result="hardAlpha"/>
<feOffset dy="6.37565"/>
<feGaussianBlur stdDeviation="5.84435"/>
<feColorMatrix type="matrix" values="0 0 0 0 0.599108 0 0 0 0 0.279792 0 0 0 0 0.85 0 0 0 0.35 0"/>
<feBlend mode="normal" in2="BackgroundImageFix" result="effect1_dropShadow_257087_1299"/>
<feColorMatrix in="SourceAlpha" type="matrix" values="0 0 0 0 0 0 0 0 0 0 0 0 0 0 0 0 0 0 127 0" result="hardAlpha"/>
<feOffset dx="-2.12522" dy="-1.06261"/>
<feGaussianBlur stdDeviation="3.91311"/>
<feColorMatrix type="matrix" values="0 0 0 0 1 0 0 0 0 1 0 0 0 0 1 0 0 0 0.2 0"/>
<feBlend mode="normal" in2="effect1_dropShadow_257087_1299" result="effect2_dropShadow_257087_1299"/>
<feBlend mode="normal" in="SourceGraphic" in2="effect2_dropShadow_257087_1299" result="shape"/>
</filter>
<filter id="filter5_dd_257087_1299" x="75.4311" y="154.236" width="30.9609" height="35.1628" filterUnits="userSpaceOnUse" color-interpolation-filters="sRGB">
<feFlood flood-opacity="0" result="BackgroundImageFix"/>
<feColorMatrix in="SourceAlpha" type="matrix" values="0 0 0 0 0 0 0 0 0 0 0 0 0 0 0 0 0 0 127 0" result="hardAlpha"/>
<feOffset dy="7.43826"/>
<feGaussianBlur stdDeviation="3.71913"/>
<feColorMatrix type="matrix" values="0 0 0 0 0.603458 0 0 0 0 0.390104 0 0 0 0 0.875 0 0 0 0.32 0"/>
<feBlend mode="normal" in2="BackgroundImageFix" result="effect1_dropShadow_257087_1299"/>
<feColorMatrix in="SourceAlpha" type="matrix" values="0 0 0 0 0 0 0 0 0 0 0 0 0 0 0 0 0 0 127 0" result="hardAlpha"/>
<feOffset dx="-2.12522" dy="-2.12522"/>
<feGaussianBlur stdDeviation="1.06261"/>
<feColorMatrix type="matrix" values="0 0 0 0 1 0 0 0 0 1 0 0 0 0 1 0 0 0 0.4 0"/>
<feBlend mode="normal" in2="effect1_dropShadow_257087_1299" result="effect2_dropShadow_257087_1299"/>
<feBlend mode="normal" in="SourceGraphic" in2="effect2_dropShadow_257087_1299" result="shape"/>
</filter>
<filter id="filter6_dd_257087_1299" x="112.884" y="154.236" width="30.9609" height="35.1628" filterUnits="userSpaceOnUse" color-interpolation-filters="sRGB">
<feFlood flood-opacity="0" result="BackgroundImageFix"/>
<feColorMatrix in="SourceAlpha" type="matrix" values="0 0 0 0 0 0 0 0 0 0 0 0 0 0 0 0 0 0 127 0" result="hardAlpha"/>
<feOffset dy="7.43826"/>
<feGaussianBlur stdDeviation="3.71913"/>
<feColorMatrix type="matrix" values="0 0 0 0 0.603458 0 0 0 0 0.390104 0 0 0 0 0.875 0 0 0 0.32 0"/>
<feBlend mode="normal" in2="BackgroundImageFix" result="effect1_dropShadow_257087_1299"/>
<feColorMatrix in="SourceAlpha" type="matrix" values="0 0 0 0 0 0 0 0 0 0 0 0 0 0 0 0 0 0 127 0" result="hardAlpha"/>
<feOffset dx="-2.12522" dy="-2.12522"/>
<feGaussianBlur stdDeviation="1.06261"/>
<feColorMatrix type="matrix" values="0 0 0 0 1 0 0 0 0 1 0 0 0 0 1 0 0 0 0.4 0"/>
<feBlend mode="normal" in2="effect1_dropShadow_257087_1299" result="effect2_dropShadow_257087_1299"/>
<feBlend mode="normal" in="SourceGraphic" in2="effect2_dropShadow_257087_1299" result="shape"/>
</filter>
<filter id="filter7_f_257087_1299" x="129.185" y="215.529" width="225.857" height="174.059" filterUnits="userSpaceOnUse" color-interpolation-filters="sRGB">
<feFlood flood-opacity="0" result="BackgroundImageFix"/>
<feBlend mode="normal" in="SourceGraphic" in2="BackgroundImageFix" result="shape"/>
<feGaussianBlur stdDeviation="42.5025" result="effect1_foregroundBlur_257087_1299"/>
</filter>
<filter id="filter8_d_257087_1299" x="60.5012" y="0.858112" width="280.048" height="296.865" filterUnits="userSpaceOnUse" color-interpolation-filters="sRGB">
<feFlood flood-opacity="0" result="BackgroundImageFix"/>
<feColorMatrix in="SourceAlpha" type="matrix" values="0 0 0 0 0 0 0 0 0 0 0 0 0 0 0 0 0 0 127 0" result="hardAlpha"/>
<feOffset dy="-21.2522"/>
<feGaussianBlur stdDeviation="54.193"/>
<feColorMatrix type="matrix" values="0 0 0 0 1 0 0 0 0 0.820833 0 0 0 0 0.992833 0 0 0 0.35 0"/>
<feBlend mode="normal" in2="BackgroundImageFix" result="effect1_dropShadow_257087_1299"/>
<feBlend mode="normal" in="SourceGraphic" in2="effect1_dropShadow_257087_1299" result="shape"/>
</filter>
<filter id="filter9_ii_257087_1299" x="122.132" y="120.933" width="110.031" height="104.533" filterUnits="userSpaceOnUse" color-interpolation-filters="sRGB">
<feFlood flood-opacity="0" result="BackgroundImageFix"/>
<feBlend mode="normal" in="SourceGraphic" in2="BackgroundImageFix" result="shape"/>
<feColorMatrix in="SourceAlpha" type="matrix" values="0 0 0 0 0 0 0 0 0 0 0 0 0 0 0 0 0 0 127 0" result="hardAlpha"/>
<feOffset dy="-9.56348"/>
<feGaussianBlur stdDeviation="9.56348"/>
<feComposite in2="hardAlpha" operator="arithmetic" k2="-1" k3="1"/>
<feColorMatrix type="matrix" values="0 0 0 0 0.379167 0 0 0 0 0.102691 0 0 0 0 0.351519 0 0 0 0.31 0"/>
<feBlend mode="normal" in2="shape" result="effect1_innerShadow_257087_1299"/>
<feColorMatrix in="SourceAlpha" type="matrix" values="0 0 0 0 0 0 0 0 0 0 0 0 0 0 0 0 0 0 127 0" result="hardAlpha"/>
<feOffset dx="-46.7548" dy="14.8765"/>
<feGaussianBlur stdDeviation="42.5043"/>
<feComposite in2="hardAlpha" operator="arithmetic" k2="-1" k3="1"/>
<feColorMatrix type="matrix" values="0 0 0 0 0.291279 0 0 0 0 0.061684 0 0 0 0 0.779167 0 0 0 0.28 0"/>
<feBlend mode="normal" in2="effect1_innerShadow_257087_1299" result="effect2_innerShadow_257087_1299"/>
</filter>
<filter id="filter10_f_257087_1299" x="88.8738" y="93.899" width="206.481" height="188.494" filterUnits="userSpaceOnUse" color-interpolation-filters="sRGB">
<feFlood flood-opacity="0" result="BackgroundImageFix"/>
<feBlend mode="normal" in="SourceGraphic" in2="BackgroundImageFix" result="shape"/>
<feGaussianBlur stdDeviation="40.8848" result="effect1_foregroundBlur_257087_1299"/>
</filter>
<filter id="filter11_dd_257087_1299" x="175.847" y="178.448" width="27.9728" height="38.4075" filterUnits="userSpaceOnUse" color-interpolation-filters="sRGB">
<feFlood flood-opacity="0" result="BackgroundImageFix"/>
<feColorMatrix in="SourceAlpha" type="matrix" values="0 0 0 0 0 0 0 0 0 0 0 0 0 0 0 0 0 0 127 0" result="hardAlpha"/>
<feOffset dy="6.37565"/>
<feGaussianBlur stdDeviation="5.84435"/>
<feColorMatrix type="matrix" values="0 0 0 0 0.599108 0 0 0 0 0.279792 0 0 0 0 0.85 0 0 0 0.35 0"/>
<feBlend mode="normal" in2="BackgroundImageFix" result="effect1_dropShadow_257087_1299"/>
<feColorMatrix in="SourceAlpha" type="matrix" values="0 0 0 0 0 0 0 0 0 0 0 0 0 0 0 0 0 0 127 0" result="hardAlpha"/>
<feOffset dx="-2.12522" dy="-1.06261"/>
<feGaussianBlur stdDeviation="3.91311"/>
<feColorMatrix type="matrix" values="0 0 0 0 1 0 0 0 0 1 0 0 0 0 1 0 0 0 0.2 0"/>
<feBlend mode="normal" in2="effect1_dropShadow_257087_1299" result="effect2_dropShadow_257087_1299"/>
<feBlend mode="normal" in="SourceGraphic" in2="effect2_dropShadow_257087_1299" result="shape"/>
</filter>
<filter id="filter12_dd_257087_1299" x="159.033" y="153.108" width="31.8822" height="34.465" filterUnits="userSpaceOnUse" color-interpolation-filters="sRGB">
<feFlood flood-opacity="0" result="BackgroundImageFix"/>
<feColorMatrix in="SourceAlpha" type="matrix" values="0 0 0 0 0 0 0 0 0 0 0 0 0 0 0 0 0 0 127 0" result="hardAlpha"/>
<feOffset dx="-5.31304" dy="7.1052"/>
<feGaussianBlur stdDeviation="3.5526"/>
<feColorMatrix type="matrix" values="0 0 0 0 0.603458 0 0 0 0 0.390104 0 0 0 0 0.875 0 0 0 0.32 0"/>
<feBlend mode="normal" in2="BackgroundImageFix" result="effect1_dropShadow_257087_1299"/>
<feColorMatrix in="SourceAlpha" type="matrix" values="0 0 0 0 0 0 0 0 0 0 0 0 0 0 0 0 0 0 127 0" result="hardAlpha"/>
<feOffset dx="3.18783" dy="-4.25043"/>
<feGaussianBlur stdDeviation="1.01503"/>
<feColorMatrix type="matrix" values="0 0 0 0 1 0 0 0 0 1 0 0 0 0 1 0 0 0 0.4 0"/>
<feBlend mode="normal" in2="effect1_dropShadow_257087_1299" result="effect2_dropShadow_257087_1299"/>
<feBlend mode="normal" in="SourceGraphic" in2="effect2_dropShadow_257087_1299" result="shape"/>
</filter>
<filter id="filter13_dd_257087_1299" x="187.304" y="154.812" width="30.8752" height="33.9214" filterUnits="userSpaceOnUse" color-interpolation-filters="sRGB">
<feFlood flood-opacity="0" result="BackgroundImageFix"/>
<feColorMatrix in="SourceAlpha" type="matrix" values="0 0 0 0 0 0 0 0 0 0 0 0 0 0 0 0 0 0 127 0" result="hardAlpha"/>
<feOffset dx="-4.25043" dy="7.43826"/>
<feGaussianBlur stdDeviation="3.5526"/>
<feColorMatrix type="matrix" values="0 0 0 0 0.603458 0 0 0 0 0.390104 0 0 0 0 0.875 0 0 0 0.32 0"/>
<feBlend mode="normal" in2="BackgroundImageFix" result="effect1_dropShadow_257087_1299"/>
<feColorMatrix in="SourceAlpha" type="matrix" values="0 0 0 0 0 0 0 0 0 0 0 0 0 0 0 0 0 0 127 0" result="hardAlpha"/>
<feOffset dx="2.12522" dy="-2.03006"/>
<feGaussianBlur stdDeviation="1.01503"/>
<feColorMatrix type="matrix" values="0 0 0 0 1 0 0 0 0 1 0 0 0 0 1 0 0 0 0.4 0"/>
<feBlend mode="normal" in2="effect1_dropShadow_257087_1299" result="effect2_dropShadow_257087_1299"/>
<feBlend mode="normal" in="SourceGraphic" in2="effect2_dropShadow_257087_1299" result="shape"/>
</filter>
<linearGradient id="paint0_linear_257087_1299" x1="110.337" y1="300.534" x2="110.337" y2="304.584" gradientUnits="userSpaceOnUse">
<stop/>
<stop offset="1" stop-color="#151433" stop-opacity="0.87"/>
<stop offset="1" stop-color="#251F27" stop-opacity="0.87"/>
</linearGradient>
<linearGradient id="paint1_linear_257087_1299" x1="109.868" y1="132.141" x2="109.985" y2="304.299" gradientUnits="userSpaceOnUse">
<stop stop-color="#0D0038"/>
<stop offset="1" stop-opacity="0"/>
</linearGradient>
<linearGradient id="paint2_linear_257087_1299" x1="137.117" y1="154.47" x2="69.4865" y2="213.8" gradientUnits="userSpaceOnUse">
<stop stop-color="#0D0038" stop-opacity="0.64"/>
<stop offset="1" stop-opacity="0"/>
</linearGradient>
<linearGradient id="paint3_linear_257087_1299" x1="109.868" y1="130.538" x2="109.868" y2="211.634" gradientUnits="userSpaceOnUse">
<stop stop-color="white"/>
<stop offset="0.0698237" stop-color="#F4F0F4" stop-opacity="0.990923"/>
<stop offset="0.942282" stop-color="#C7C5FE" stop-opacity="0.77"/>
<stop offset="1" stop-color="#C4C2FF" stop-opacity="0.81"/>
</linearGradient>
<linearGradient id="paint4_linear_257087_1299" x1="109.983" y1="188.955" x2="109.983" y2="204.991" gradientUnits="userSpaceOnUse">
<stop stop-color="#5B225C"/>
<stop offset="1" stop-color="#151433" stop-opacity="0.87"/>
<stop offset="1" stop-color="#59266B" stop-opacity="0.87"/>
</linearGradient>
<linearGradient id="paint5_linear_257087_1299" x1="110.762" y1="197.228" x2="110.763" y2="201.346" gradientUnits="userSpaceOnUse">
<stop stop-color="#261953"/>
<stop offset="1" stop-color="#11082F"/>
</linearGradient>
<linearGradient id="paint6_linear_257087_1299" x1="90.9116" y1="159.636" x2="90.9179" y2="175.944" gradientUnits="userSpaceOnUse">
<stop stop-color="#2E1E65"/>
<stop offset="1" stop-color="#11082F"/>
</linearGradient>
<linearGradient id="paint7_linear_257087_1299" x1="97.2306" y1="176.355" x2="84.3402" y2="181.291" gradientUnits="userSpaceOnUse">
<stop stop-color="#FE4A23" stop-opacity="0.35"/>
<stop offset="1" stop-color="#FA43B0" stop-opacity="0"/>
</linearGradient>
<linearGradient id="paint8_linear_257087_1299" x1="90.7965" y1="142.221" x2="90.6882" y2="159.929" gradientUnits="userSpaceOnUse">
<stop stop-color="#FE4A23" stop-opacity="0.42"/>
<stop offset="1" stop-color="#FA43B0" stop-opacity="0.38"/>
</linearGradient>
<linearGradient id="paint9_linear_257087_1299" x1="90.7965" y1="198.576" x2="90.6562" y2="178.417" gradientUnits="userSpaceOnUse">
<stop stop-color="#FE4A23" stop-opacity="0.17"/>
<stop offset="1" stop-color="#FA43B0" stop-opacity="0.48"/>
</linearGradient>
<linearGradient id="paint10_linear_257087_1299" x1="8.04219" y1="1.15007" x2="8.0485" y2="17.4573" gradientUnits="userSpaceOnUse">
<stop stop-color="#2E1E65"/>
<stop offset="1" stop-color="#11082F"/>
</linearGradient>
<linearGradient id="paint11_linear_257087_1299" x1="9.99529" y1="-3.47531e-07" x2="-2.89517" y2="4.93631" gradientUnits="userSpaceOnUse">
<stop stop-color="#FE4A23" stop-opacity="0.35"/>
<stop offset="1" stop-color="#FA43B0" stop-opacity="0"/>
</linearGradient>
<linearGradient id="paint12_linear_257087_1299" x1="128.48" y1="142.221" x2="128.588" y2="159.929" gradientUnits="userSpaceOnUse">
<stop stop-color="#FE4A23" stop-opacity="0.42"/>
<stop offset="1" stop-color="#FA43B0" stop-opacity="0.38"/>
</linearGradient>
<linearGradient id="paint13_linear_257087_1299" x1="128.48" y1="198.576" x2="128.62" y2="178.417" gradientUnits="userSpaceOnUse">
<stop stop-color="#FE4A23" stop-opacity="0.17"/>
<stop offset="1" stop-color="#FA43B0" stop-opacity="0.48"/>
</linearGradient>
<linearGradient id="paint14_linear_257087_1299" x1="159.072" y1="212.651" x2="170.988" y2="212.651" gradientUnits="userSpaceOnUse">
<stop stop-color="#0D0038" stop-opacity="0.37"/>
<stop offset="1" stop-opacity="0"/>
</linearGradient>
<linearGradient id="paint15_linear_257087_1299" x1="213.615" y1="133.273" x2="210.209" y2="309.741" gradientUnits="userSpaceOnUse">
<stop stop-color="#0D0038"/>
<stop offset="1" stop-opacity="0"/>
</linearGradient>
<linearGradient id="paint16_linear_257087_1299" x1="242.114" y1="300.534" x2="242.114" y2="304.584" gradientUnits="userSpaceOnUse">
<stop/>
<stop offset="1" stop-color="#151433" stop-opacity="0.87"/>
<stop offset="1" stop-color="#251F27" stop-opacity="0.87"/>
</linearGradient>
<linearGradient id="paint17_linear_257087_1299" x1="193.704" y1="224.619" x2="217.183" y2="213.756" gradientUnits="userSpaceOnUse">
<stop stop-color="#0D0038" stop-opacity="0.37"/>
<stop offset="0.626611" stop-color="#050015" stop-opacity="0.08"/>
<stop offset="1" stop-opacity="0"/>
</linearGradient>
<linearGradient id="paint18_linear_257087_1299" x1="201.437" y1="125.37" x2="201.437" y2="210.589" gradientUnits="userSpaceOnUse">
<stop stop-color="white"/>
<stop offset="0.0698237" stop-color="#F4F0F4" stop-opacity="0.990923"/>
<stop offset="0.942282" stop-color="#C7C5FE" stop-opacity="0.77"/>
<stop offset="1" stop-color="#C4C2FF" stop-opacity="0.81"/>
</linearGradient>
<linearGradient id="paint19_linear_257087_1299" x1="192.131" y1="175.425" x2="192.131" y2="200.624" gradientUnits="userSpaceOnUse">
<stop stop-color="#5B225C"/>
<stop offset="1" stop-color="#151433" stop-opacity="0.87"/>
<stop offset="1" stop-color="#59266B" stop-opacity="0.87"/>
</linearGradient>
<linearGradient id="paint20_linear_257087_1299" x1="189.833" y1="188.158" x2="189.844" y2="199.806" gradientUnits="userSpaceOnUse">
<stop stop-color="#261953"/>
<stop offset="1" stop-color="#11082F"/>
</linearGradient>
<linearGradient id="paint21_linear_257087_1299" x1="178.574" y1="160.391" x2="178.58" y2="174.602" gradientUnits="userSpaceOnUse">
<stop stop-color="#2E1E65"/>
<stop offset="1" stop-color="#11082F"/>
</linearGradient>
<linearGradient id="paint22_linear_257087_1299" x1="184.104" y1="174.967" x2="172.801" y2="179.259" gradientUnits="userSpaceOnUse">
<stop stop-color="#FE4A23" stop-opacity="0.35"/>
<stop offset="1" stop-color="#FA43B0" stop-opacity="0"/>
</linearGradient>
<linearGradient id="paint23_linear_257087_1299" x1="178.46" y1="144.956" x2="178.366" y2="160.484" gradientUnits="userSpaceOnUse">
<stop stop-color="#FE4A23" stop-opacity="0.42"/>
<stop offset="1" stop-color="#FA43B0" stop-opacity="0.38"/>
</linearGradient>
<linearGradient id="paint24_linear_257087_1299" x1="178.46" y1="194.668" x2="178.338" y2="176.96" gradientUnits="userSpaceOnUse">
<stop stop-color="#FE4A23" stop-opacity="0.17"/>
<stop offset="1" stop-color="#FA43B0" stop-opacity="0.48"/>
</linearGradient>
<linearGradient id="paint25_linear_257087_1299" x1="7.68209" y1="1.09858" x2="7.68812" y2="16.6756" gradientUnits="userSpaceOnUse">
<stop stop-color="#2E1E65"/>
<stop offset="1" stop-color="#11082F"/>
</linearGradient>
<linearGradient id="paint26_linear_257087_1299" x1="9.54774" y1="-3.3197e-07" x2="-2.76553" y2="4.71528" gradientUnits="userSpaceOnUse">
<stop stop-color="#FE4A23" stop-opacity="0.35"/>
<stop offset="1" stop-color="#FA43B0" stop-opacity="0"/>
</linearGradient>
<linearGradient id="paint27_linear_257087_1299" x1="206.451" y1="143.335" x2="206.555" y2="160.25" gradientUnits="userSpaceOnUse">
<stop stop-color="#FE4A23" stop-opacity="0.42"/>
<stop offset="1" stop-color="#FA43B0" stop-opacity="0.38"/>
</linearGradient>
<linearGradient id="paint28_linear_257087_1299" x1="206.451" y1="197.167" x2="206.585" y2="177.911" gradientUnits="userSpaceOnUse">
<stop stop-color="#FE4A23" stop-opacity="0.17"/>
<stop offset="1" stop-color="#FA43B0" stop-opacity="0.48"/>
</linearGradient>
</defs>
</svg>
